<?xml version="1.0" encoding="UTF-8" standalone="no"?>
<!DOCTYPE svg PUBLIC "-//W3C//DTD SVG 1.1//EN" "http://www.w3.org/Graphics/SVG/1.1/DTD/svg11.dtd">
<svg width="100%" height="100%" viewBox="0 0 1500 1500" version="1.1" xmlns="http://www.w3.org/2000/svg" xmlns:xlink="http://www.w3.org/1999/xlink" xml:space="preserve" xmlns:serif="http://www.serif.com/" style="fill-rule:evenodd;clip-rule:evenodd;stroke-linejoin:round;stroke-miterlimit:2;">
    <g transform="matrix(1.04136,0,0,1.04136,0,0)">
        <g id="logo用" transform="matrix(1.02348,0,0,1.04817,-80.4376,-34.1283)">
            <g transform="matrix(1.01755,0,0,1.10056,85.6238,-84.9043)">
                <path d="M460.902,241.215C460.902,208.888 431.874,182.682 396.067,182.682L380.091,182.682C362.883,182.682 346.38,188.853 334.212,199.838C322.044,210.823 315.208,225.722 315.208,241.258L315.208,1228.26C315.208,1243.81 322.052,1258.73 334.234,1269.72C346.416,1280.72 362.938,1286.9 380.165,1286.9C385.422,1286.9 390.735,1286.9 395.992,1286.9C431.841,1286.9 460.902,1260.66 460.902,1228.3C460.902,1037.04 460.902,432.379 460.902,241.215Z" style="fill:rgb(255,171,160);"/>
            </g>
            <g transform="matrix(6.23072e-17,-1.01755,0.564516,3.45666e-17,486.099,581.694)">
                <path d="M460.902,299.549C460.902,268.554 454.232,238.828 442.36,216.912C430.487,194.995 414.384,182.682 397.594,182.682C391.283,182.682 384.874,182.682 378.562,182.682C361.76,182.682 345.646,195.004 333.764,216.936C321.883,238.869 315.208,268.617 315.208,299.634L315.208,1169.81C315.208,1200.87 321.891,1230.65 333.786,1252.61C345.68,1274.56 361.813,1286.9 378.635,1286.9C384.899,1286.9 391.258,1286.9 397.522,1286.9C432.526,1286.9 460.902,1234.52 460.902,1169.9L460.902,299.549Z" style="fill:rgb(162,232,159);"/>
            </g>
            <g transform="matrix(6.23072e-17,-1.01755,0.708563,4.3387e-17,156.296,1118.64)">
                <path d="M460.902,275.791C460.902,251.097 454.232,227.414 442.36,209.953C430.487,192.491 414.384,182.682 397.594,182.682C391.283,182.682 384.874,182.682 378.562,182.682C343.573,182.682 315.208,224.398 315.208,275.858L315.208,1193.62C315.208,1218.36 321.891,1242.08 333.786,1259.58C345.68,1277.07 361.813,1286.9 378.635,1286.9L397.522,1286.9C432.526,1286.9 460.902,1245.16 460.902,1193.68L460.902,275.791Z" style="fill:rgb(118,185,216);"/>
            </g>
            <g transform="matrix(6.23072e-17,-1.01755,0.572462,3.50532e-17,535.444,1652.14)">
                <path d="M460.902,297.927C460.902,267.362 454.232,238.049 442.36,216.436C430.487,194.824 414.384,182.682 397.594,182.682C391.283,182.682 384.874,182.682 378.562,182.682C361.76,182.682 345.646,194.833 333.764,216.461C321.883,238.089 315.208,267.424 315.208,298.011L315.208,1171.44C315.208,1202.06 321.891,1231.43 333.786,1253.08C345.68,1274.73 361.813,1286.9 378.635,1286.9C384.899,1286.9 391.258,1286.9 397.522,1286.9C432.526,1286.9 460.902,1235.24 460.902,1171.52L460.902,297.927Z" style="fill:rgb(202,128,197);"/>
            </g>
            <g transform="matrix(1.14237,0,0,1.13337,195.768,-445.46)">
                <circle cx="249.244" cy="552.471" r="64.783" style="fill:rgb(221,84,74);"/>
            </g>
            <g transform="matrix(1.16437,0,0,1.1552,852.363,-451.675)">
                <circle cx="249.244" cy="552.471" r="64.783" style="fill:rgb(86,184,65);"/>
            </g>
            <g transform="matrix(1.15908,0,0,1.14994,711.912,88.8342)">
                <circle cx="249.244" cy="552.471" r="64.783" style="fill:rgb(30,109,208);"/>
            </g>
            <g transform="matrix(1.15283,0,0,1.14842,916.394,622.798)">
                <circle cx="249.244" cy="552.471" r="64.783" style="fill:rgb(201,46,189);"/>
            </g>
        </g>
    </g>
</svg>
